<svg version="1.1" xmlns="http://www.w3.org/2000/svg" xmlns:xlink="http://www.w3.org/1999/xlink" x="0px" y="0px" viewBox="-47 170.9 500 500" style="enable-background:new -47 170.9 500 500;" xml:space="preserve">

	<g id="icon-mask" fill="#FFFFFF">
				
		<g id="image"> 
			<path d="M427.8,624.3l-26.3-433.1c-0.7-12-11.2-21.3-23.2-20.6l-379.6,23 c-12,0.7-21.3,11.2-20.6,23.2L4.5,650c0.7,12,11.2,21.3,23.2,20.6l379.6-23C419.3,646.8,428.5,636.4,427.8,624.3z M40.3,575.8 L19.4,232.7l343.1-20.8L383.3,555L40.3,575.8z"/>
			<polygon points="60.9,452.3 146.8,376.1 236.5,439.6 282.3,403.9 351,452.2 355.8,531.1 66.7,548.6  60.9,452.3 		"/>
			<path d="M276.1,262.9c25.1-1.5,46.6,17.6,48.1,42.6c1.5,25-17.6,46.6-42.6,48.1 c-25.1,1.5-46.6-17.6-48.1-42.6C232,286,251.1,264.4,276.1,262.9L276.1,262.9z"/>
		</g>
		
	</g>

</svg>