<svg version="1.1" xmlns="http://www.w3.org/2000/svg" xmlns:xlink="http://www.w3.org/1999/xlink" x="0px" y="0px" viewBox="-47 170.9 500 500" style="enable-background:new -47 170.9 500 500;" xml:space="preserve">

	<path id="background" fill="#FFC83B" d="M453.1,238.5c0-37.3-30.2-67.6-67.6-67.6H20.6c-37.3,0-67.7,30.2-67.7,67.6v364.8 c0,37.3,30.2,67.6,67.6,67.6h364.8c37.3,0,67.6-30.2,67.6-67.6V238.5H453.1z"/>

	<g id="icon" fill="#FFFFFF">
		
		<g id="image">
			<path d="M364.9,567.6L346,255.7c-0.5-8.7-8.1-15.3-16.7-14.8L55.9,257.5c-8.7,0.5-15.3,8-14.8,16.7 l18.9,311.8c0.5,8.7,8.1,15.3,16.7,14.8l273.3-16.6C358.7,583.8,365.4,576.2,364.9,567.6z M85.8,532.6l-15-247l247-15l15,247 L85.8,532.6z"/>
			<polygon points="100.7,443.7 162.5,388.8 227.1,434.5 260.1,408.9 309.5,443.6 313,500.4 104.9,513.1 100.7,443.7"/>
			<path d="M255.6,307.3c18-1.1,33.5,12.6,34.6,30.7c1.1,18-12.6,33.5-30.7,34.6c-18,1.1-33.5-12.6-34.6-30.7 C223.9,323.9,237.6,308.4,255.6,307.3L255.6,307.3z"/>
		</g>

	</g>
	
</svg>